<svg xmlns="http://www.w3.org/2000/svg" viewBox="0 0 16.72 16.72"><defs><style>.cls-1{fill:#fff;}</style></defs><title>fb_icon_1</title><g id="Layer_2" data-name="Layer 2"><g id="Content"><path class="cls-1" d="M0,8.9V7.83a1,1,0,0,0,0-.11A8.47,8.47,0,0,1,.57,5.33,8.28,8.28,0,0,1,2.11,2.81,8.38,8.38,0,0,1,3.93,1.27,8.32,8.32,0,0,1,9.47.08,8.32,8.32,0,0,1,14.7,2.92a8.24,8.24,0,0,1,1.85,3.75,8.16,8.16,0,0,1,.1,2.79,8.33,8.33,0,0,1-3.42,5.7,8.17,8.17,0,0,1-3.77,1.49l-.57.08H7.82l-.13,0c-.3,0-.61-.07-.91-.12A8.22,8.22,0,0,1,3.9,15.43a8.31,8.31,0,0,1-2.69-2.74A8.05,8.05,0,0,1,.07,9.45C.05,9.26,0,9.08,0,8.9Zm6-.53H7.27c0,.08,0,.13,0,.19q0,2.34,0,4.67c0,.12,0,.15.15.15H9c.17,0,.17,0,.17-.18q0-2.33,0-4.66c0-.06,0-.11,0-.18h1.37l.18-1.72H9.15c0-.35,0-.69,0-1s.12-.48.47-.52h.93c.09,0,.13,0,.13-.12q0-.75,0-1.49c0-.09,0-.11-.12-.11H9.92c-.4,0-.81,0-1.21.05a1.45,1.45,0,0,0-1.15.71,2.24,2.24,0,0,0-.27,1c0,.43,0,.87,0,1.31,0,.05,0,.1,0,.17H6Z"/></g></g></svg>