<svg xmlns="http://www.w3.org/2000/svg" viewBox="0 0 16.35 16.35"><defs><style>.cls-1{fill:#fff;}</style></defs><title>instagram_icon_1</title><g id="Layer_2" data-name="Layer 2"><g id="Content"><path class="cls-1" d="M7.63,0H8.72L9.3.07a8.21,8.21,0,0,1,7,6.87c0,.23.06.46.09.69V8.72c0,.19,0,.39-.07.58a8.21,8.21,0,0,1-6.87,7l-.69.09H7.63l-.58-.07a8.21,8.21,0,0,1-7-6.87c0-.23-.06-.46-.09-.69S0,8,0,7.63c0-.19,0-.39.07-.58a8.21,8.21,0,0,1,6.87-7Zm5.18,8.19h0q0-1.38,0-2.76a2.58,2.58,0,0,0,0-.41,1.81,1.81,0,0,0-1.86-1.49c-1.84,0-3.68,0-5.52,0a2.17,2.17,0,0,0-.4,0A1.78,1.78,0,0,0,3.53,5.4q0,2.78,0,5.56a2.14,2.14,0,0,0,.1.66,1.77,1.77,0,0,0,1.78,1.21H9.28c.63,0,1.27,0,1.9,0a1.74,1.74,0,0,0,1.63-1.65C12.83,10.17,12.81,9.18,12.81,8.19Z"/><path class="cls-1" d="M9.81,8.18A1.63,1.63,0,1,0,8.19,9.81,1.63,1.63,0,0,0,9.81,8.18Zm.37-3.57V6.17h1.56V4.61Z"/><path class="cls-1" d="M4.44,7.22H5.8A2.51,2.51,0,0,0,7,10.39a2.39,2.39,0,0,0,2.68-.14,2.4,2.4,0,0,0,1-1.36,2.56,2.56,0,0,0-.08-1.66h1.38s0,.1,0,.14q0,1.79,0,3.57a.88.88,0,0,1-.67.94,1.32,1.32,0,0,1-.33,0H5.43a.9.9,0,0,1-1-.68,1.1,1.1,0,0,1,0-.27q0-1.82,0-3.64S4.44,7.27,4.44,7.22Z"/><path class="cls-1" d="M9.81,8.18A1.63,1.63,0,1,1,8.17,6.54,1.64,1.64,0,0,1,9.81,8.18Z"/><path class="cls-1" d="M10.18,4.61h1.56V6.17H10.18Z"/></g></g></svg>