<svg xmlns="http://www.w3.org/2000/svg" viewBox="0 0 113.25 56.17"><defs><style>.cls-1{fill:#231f20;}</style></defs><title>logo</title><g id="Layer_2" data-name="Layer 2"><g id="Layer_1-2" data-name="Layer 1"><path class="cls-1" d="M110.25,0,73.95,26.22,47.74,7.36a28.05,28.05,0,0,0-44.6,9.34L3.2,0H.2L0,56H3l.06-16.72A28,28,0,0,0,42.57,52.55h0l0,0a28.23,28.23,0,0,0,5-3.63l26.27-19L110.05,56h3l.2-56ZM3.72,28.08a25.08,25.08,0,0,1,37-22l5.11,3.69a25,25,0,0,1-.12,36.85L41,50A25.07,25.07,0,0,1,3.72,28.08Zm50.17,12.6a28,28,0,0,0,0-25.17L71.35,28.09ZM76.51,28.06,110.24,3.73l-.17,48.47Z"/></g></g></svg>