<?xml version="1.0" encoding="utf-8"?>
<!-- Generator: Adobe Illustrator 20.1.0, SVG Export Plug-In . SVG Version: 6.00 Build 0)  -->
<svg version="1.1" id="Layer_1" xmlns="http://www.w3.org/2000/svg" xmlns:xlink="http://www.w3.org/1999/xlink" x="0px" y="0px"
	 viewBox="0 0 158 80" style="enable-background:new 0 0 158 80;" xml:space="preserve">
<style type="text/css">
	.st0{fill:#FFFFFF;}
</style>
<path class="st0" d="M152.7,2.2l-49.8,34.8L67,12C51.3-1.9,27-0.9,12.7,14.3c-2.8,3-5.1,6.4-6.8,10.1L5.9,2.3H1.8L1.6,76.7h4.1
	l0.1-22.2c8.4,18.9,31,27.5,50.5,19.3c1.3-0.5,2.5-1.1,3.7-1.8l0,0l0,0c2.5-1.4,4.8-3,6.9-4.8l36-25.2l49.5,34.6h4.1l0.3-74.4
	L152.7,2.2z M6.7,39.5C6.7,21.1,22.2,6.2,41.2,6.3c5.7,0,11.3,1.4,16.2,4l7,4.9c13.9,12.4,14.8,33.5,1.9,46.9
	c-0.7,0.7-1.4,1.4-2.1,2l-6.6,4.6c-16.6,8.9-37.5,3.1-46.7-13C8.2,50.8,6.7,45.2,6.7,39.5z M75.4,56.3c5.5-10.5,5.5-22.9,0-33.4
	l23.9,16.7L75.4,56.3z M106.5,39.5l46.2-32.3l-0.2,64.4L106.5,39.5z"/>
</svg>
