<?xml version="1.0" encoding="utf-8"?>
<!-- Generator: Adobe Illustrator 20.1.0, SVG Export Plug-In . SVG Version: 6.00 Build 0)  -->
<svg version="1.1" id="Layer_1" xmlns="http://www.w3.org/2000/svg" xmlns:xlink="http://www.w3.org/1999/xlink" x="0px" y="0px"
	 viewBox="0 0 16.7 16.7" style="enable-background:new 0 0 16.7 16.7;" xml:space="preserve">
<style type="text/css">
	.st0{fill:#FFFFFF;}
</style>
<title>fb_icon_1</title>
<g id="Layer_2">
	<g id="Content">
		<path class="st0" d="M8.4,0C3.7,0,0,3.7,0,8.4c0,4.6,3.7,8.4,8.4,8.4s8.4-3.7,8.4-8.4C16.7,3.7,13,0,8.4,0z M13.5,5.6
			c-0.2,0.2-0.4,0.4-0.6,0.6c0,0-0.1,0.1-0.1,0.1c0,0.6-0.1,1.3-0.2,1.9c-0.1,0.5-0.4,1-0.6,1.5c-0.3,0.5-0.7,1-1.1,1.4
			c-0.6,0.6-1.3,1-2,1.3C7.9,12.6,7,12.7,6,12.7c-0.5,0-1-0.2-1.5-0.3c-0.4-0.1-0.8-0.3-1.2-0.6c0,0-0.1,0-0.1-0.1
			c0.6,0,1.1,0,1.7-0.1c0.5-0.2,1-0.4,1.5-0.8c-1.1-0.1-1.8-0.9-2-1.5c0.3,0,0.6,0,0.9,0c-1.1-0.3-1.6-1-1.7-2.2
			c0.3,0.1,0.6,0.2,1,0.2C4.2,7,3.8,6.6,3.7,6C3.6,5.5,3.7,4.9,4,4.4c1.2,1.4,2.7,2.2,4.5,2.3c0-0.1,0-0.2,0-0.3
			C8.4,5.7,8.6,5,9.2,4.5c0.7-0.6,1.8-0.7,2.6-0.2c0.1,0.1,0.2,0.2,0.4,0.3c0,0,0.1,0.1,0.1,0c0.4-0.1,0.8-0.2,1.2-0.4
			c0,0,0.1,0,0.1-0.1c-0.1,0.3-0.2,0.5-0.4,0.7c-0.2,0.2-0.3,0.3-0.5,0.5c0.4,0,0.8-0.2,1.1-0.3c0,0,0,0,0,0
			C13.7,5.3,13.6,5.4,13.5,5.6z"/>
	</g>
</g>
</svg>
