<?xml version="1.0" encoding="utf-8"?>
<!-- Generator: Adobe Illustrator 20.1.0, SVG Export Plug-In . SVG Version: 6.00 Build 0)  -->
<svg version="1.1" id="Layer_1" xmlns="http://www.w3.org/2000/svg" xmlns:xlink="http://www.w3.org/1999/xlink" x="0px" y="0px"
	 viewBox="0 0 16.7 16.7" style="enable-background:new 0 0 16.7 16.7;" xml:space="preserve">
<style type="text/css">
	.st0{fill:#F9F9F9;}
	.st1{fill:#FFFFFF;}
</style>
<title>fb_icon_1</title>
<g>
	<path class="st0" d="M9.6,8.2c-0.5-0.4-1-0.8-1.4-1.1C8,7,7.8,6.9,7.7,6.7c0,1.1,0,2.1,0,3.2c0,0,0.1,0,0.1,0
		c0.6-0.5,1.2-1,1.8-1.5C9.7,8.4,9.7,8.3,9.6,8.2z"/>
	<path class="st1" d="M8.4,0C3.7,0,0,3.7,0,8.4c0,4.6,3.7,8.4,8.4,8.4c4.6,0,8.4-3.7,8.4-8.4C16.7,3.7,13,0,8.4,0z M12.8,10.6
		c-0.2,0.6-0.6,1-1.2,1c-2.2,0-4.3,0-6.5,0c-0.5,0-0.9-0.2-1.1-0.7c0-0.1-0.1-0.2-0.1-0.2c0-1.5,0-3.1,0-4.6C3.9,6,4,5.9,4,5.8
		c0.2-0.5,0.6-0.8,1.2-0.8c2.1,0,4.3,0,6.4,0c0.2,0,0.4,0,0.6,0.1c0.4,0.1,0.7,0.6,0.7,1c0,1.4,0,2.8,0,4.2
		C12.8,10.5,12.8,10.6,12.8,10.6z"/>
</g>
</svg>
